<svg width="130" height="48" viewBox="0 0 130 48" fill="none" xmlns="http://www.w3.org/2000/svg">
<path d="M10.498 11.4531V47H3.17383V11.4531H10.498ZM24.6582 26.6387V32.3516H8.49609V26.6387H24.6582ZM26.3672 11.4531V17.1904H8.49609V11.4531H26.3672ZM43.6035 41.043V29.2754C43.6035 28.429 43.4652 27.7048 43.1885 27.1025C42.9118 26.484 42.4805 26.0039 41.8945 25.6621C41.3249 25.3203 40.5843 25.1494 39.6729 25.1494C38.8916 25.1494 38.2161 25.2878 37.6465 25.5645C37.0768 25.8249 36.6374 26.2074 36.3281 26.7119C36.0189 27.2002 35.8643 27.778 35.8643 28.4453H28.833C28.833 27.3223 29.0934 26.2562 29.6143 25.2471C30.1351 24.238 30.8919 23.3509 31.8848 22.5859C32.8776 21.8047 34.0576 21.1943 35.4248 20.7549C36.8083 20.3154 38.3545 20.0957 40.0635 20.0957C42.1143 20.0957 43.9372 20.4375 45.5322 21.1211C47.1273 21.8047 48.3805 22.8301 49.292 24.1973C50.2197 25.5645 50.6836 27.2734 50.6836 29.3242V40.6279C50.6836 42.0765 50.7731 43.2646 50.9521 44.1924C51.1312 45.1038 51.3916 45.9014 51.7334 46.585V47H44.6289C44.2871 46.2839 44.0267 45.3887 43.8477 44.3145C43.6849 43.224 43.6035 42.1335 43.6035 41.043ZM44.5312 30.9111L44.5801 34.8906H40.6494C39.7217 34.8906 38.916 34.9964 38.2324 35.208C37.5488 35.4196 36.9873 35.7207 36.5479 36.1113C36.1084 36.4857 35.7829 36.9251 35.5713 37.4297C35.376 37.9342 35.2783 38.4876 35.2783 39.0898C35.2783 39.6921 35.4167 40.2373 35.6934 40.7256C35.9701 41.1976 36.3688 41.5719 36.8896 41.8486C37.4105 42.109 38.0208 42.2393 38.7207 42.2393C39.7786 42.2393 40.6982 42.0277 41.4795 41.6045C42.2607 41.1813 42.863 40.6605 43.2861 40.042C43.7256 39.4235 43.9535 38.8376 43.9697 38.2842L45.8252 41.2627C45.5648 41.93 45.2067 42.6217 44.751 43.3379C44.3115 44.054 43.75 44.7295 43.0664 45.3643C42.3828 45.9827 41.5609 46.4954 40.6006 46.9023C39.6403 47.293 38.501 47.4883 37.1826 47.4883C35.5062 47.4883 33.9844 47.1546 32.6172 46.4873C31.2663 45.8037 30.1921 44.8678 29.3945 43.6797C28.6133 42.4753 28.2227 41.1081 28.2227 39.5781C28.2227 38.1947 28.4831 36.9658 29.0039 35.8916C29.5247 34.8174 30.2897 33.9141 31.2988 33.1816C32.3242 32.4329 33.6019 31.8714 35.1318 31.4971C36.6618 31.1064 38.4359 30.9111 40.4541 30.9111H44.5312ZM70.3857 39.7002C70.3857 39.1956 70.2393 38.7399 69.9463 38.333C69.6533 37.9261 69.1081 37.5518 68.3105 37.21C67.5293 36.8519 66.3981 36.5264 64.917 36.2334C63.5824 35.9404 62.3372 35.5742 61.1816 35.1348C60.0423 34.679 59.0495 34.1338 58.2031 33.499C57.373 32.8643 56.722 32.1156 56.25 31.2529C55.778 30.374 55.542 29.373 55.542 28.25C55.542 27.1432 55.778 26.1016 56.25 25.125C56.7383 24.1484 57.43 23.2858 58.3252 22.5371C59.2367 21.7721 60.3434 21.1781 61.6455 20.7549C62.9639 20.3154 64.445 20.0957 66.0889 20.0957C68.3838 20.0957 70.3532 20.4619 71.9971 21.1943C73.6572 21.9268 74.9268 22.9359 75.8057 24.2217C76.7008 25.4912 77.1484 26.9398 77.1484 28.5674H70.1172C70.1172 27.8838 69.9707 27.2734 69.6777 26.7363C69.401 26.1829 68.9616 25.7516 68.3594 25.4424C67.7734 25.1169 67.0085 24.9541 66.0645 24.9541C65.2832 24.9541 64.6077 25.0924 64.0381 25.3691C63.4684 25.6296 63.029 25.9876 62.7197 26.4434C62.4268 26.8828 62.2803 27.3711 62.2803 27.9082C62.2803 28.3151 62.3617 28.6813 62.5244 29.0068C62.7035 29.3161 62.9883 29.6009 63.3789 29.8613C63.7695 30.1217 64.2741 30.3659 64.8926 30.5938C65.5273 30.8053 66.3086 31.0007 67.2363 31.1797C69.1406 31.5703 70.8415 32.083 72.3389 32.7178C73.8363 33.3363 75.0244 34.1826 75.9033 35.2568C76.7822 36.3148 77.2217 37.7064 77.2217 39.4316C77.2217 40.6035 76.9613 41.6777 76.4404 42.6543C75.9196 43.6309 75.1709 44.4854 74.1943 45.2178C73.2178 45.9339 72.0459 46.4954 70.6787 46.9023C69.3278 47.293 67.806 47.4883 66.1133 47.4883C63.6556 47.4883 61.5723 47.0488 59.8633 46.1699C58.1706 45.291 56.8848 44.1761 56.0059 42.8252C55.1432 41.458 54.7119 40.0583 54.7119 38.626H61.377C61.4095 39.5863 61.6536 40.3594 62.1094 40.9453C62.5814 41.5312 63.1755 41.9544 63.8916 42.2148C64.624 42.4753 65.4134 42.6055 66.2598 42.6055C67.1712 42.6055 67.9281 42.4834 68.5303 42.2393C69.1325 41.9788 69.5882 41.637 69.8975 41.2139C70.223 40.7744 70.3857 40.2699 70.3857 39.7002ZM88.6475 9.5V47H81.6162V9.5H88.6475ZM87.6465 32.8643H85.7178C85.734 31.0251 85.9782 29.3324 86.4502 27.7861C86.9222 26.2236 87.5977 24.8727 88.4766 23.7334C89.3555 22.5778 90.4053 21.6826 91.626 21.0479C92.863 20.4131 94.2301 20.0957 95.7275 20.0957C97.0296 20.0957 98.2096 20.2829 99.2676 20.6572C100.342 21.0153 101.261 21.6012 102.026 22.415C102.808 23.2126 103.41 24.2624 103.833 25.5645C104.256 26.8665 104.468 28.4453 104.468 30.3008V47H97.3877V30.252C97.3877 29.0801 97.2168 28.1605 96.875 27.4932C96.5495 26.8096 96.0693 26.3294 95.4346 26.0527C94.8161 25.7598 94.0511 25.6133 93.1396 25.6133C92.1305 25.6133 91.2679 25.8005 90.5518 26.1748C89.8519 26.5492 89.2904 27.07 88.8672 27.7373C88.444 28.3883 88.1348 29.1533 87.9395 30.0322C87.7441 30.9111 87.6465 31.8551 87.6465 32.8643ZM117.236 20.584V47H110.181V20.584H117.236ZM109.741 13.6992C109.741 12.6738 110.099 11.8275 110.815 11.1602C111.532 10.4928 112.492 10.1592 113.696 10.1592C114.884 10.1592 115.837 10.4928 116.553 11.1602C117.285 11.8275 117.651 12.6738 117.651 13.6992C117.651 14.7246 117.285 15.571 116.553 16.2383C115.837 16.9056 114.884 17.2393 113.696 17.2393C112.492 17.2393 111.532 16.9056 110.815 16.2383C110.099 15.571 109.741 14.7246 109.741 13.6992Z" fill="black"/>
<rect x="123" y="40" width="7" height="7" fill="#F3B81E"/>
</svg>
