<svg width="16" height="16" viewBox="0 0 16 16" fill="none" xmlns="http://www.w3.org/2000/svg">
<rect width="16" height="16" fill="#F3B81E"/>
<path d="M7.75053 3.84616C9.64518 3.84616 11.188 5.38901 11.188 7.28366C11.188 8.10678 10.8993 8.86142 10.4146 9.45358L13.1538 12.1928L12.6597 12.687L9.92045 9.94772C9.32829 10.4325 8.57365 10.7212 7.75053 10.7212C5.85587 10.7212 4.31303 9.17831 4.31303 7.28366C4.31303 5.38901 5.85587 3.84616 7.75053 3.84616ZM7.75053 4.53366C6.22782 4.53366 5.00053 5.76096 5.00053 7.28366C5.00053 8.80637 6.22782 10.0337 7.75053 10.0337C9.27323 10.0337 10.5005 8.80637 10.5005 7.28366C10.5005 5.76096 9.27323 4.53366 7.75053 4.53366Z" fill="white"/>
</svg>
